<svg width="1200" height="750" viewBox="0 0 1200 750" fill="none" xmlns="http://www.w3.org/2000/svg">
  <rect width="1200" height="750" fill="#05070D"/>
  <rect width="1200" height="750" fill="url(#grid)" opacity="0.42"/>
  <circle cx="220" cy="120" r="260" fill="#60A5FA" opacity="0.18"/>
  <circle cx="980" cy="650" r="340" fill="#A78BFA" opacity="0.13"/>
  <rect x="86" y="72" width="1028" height="606" rx="42" fill="#0B1020" stroke="white" stroke-opacity="0.12" stroke-width="2"/>
  <rect x="112" y="102" width="976" height="54" rx="20" fill="white" fill-opacity="0.055"/>
  <circle cx="142" cy="129" r="8" fill="#EF4444"/>
  <circle cx="168" cy="129" r="8" fill="#F59E0B"/>
  <circle cx="194" cy="129" r="8" fill="#22C55E"/>
  <rect x="788" y="118" width="244" height="22" rx="11" fill="#60A5FA" fill-opacity="0.25"/>
  <rect x="112" y="184" width="218" height="452" rx="28" fill="white" fill-opacity="0.055" stroke="white" stroke-opacity="0.1"/>
  <rect x="142" y="222" width="122" height="16" rx="8" fill="white" fill-opacity="0.5"/>
  <rect x="142" y="267" width="148" height="14" rx="7" fill="white" fill-opacity="0.18"/>
  <rect x="142" y="306" width="118" height="14" rx="7" fill="white" fill-opacity="0.18"/>
  <rect x="142" y="345" width="154" height="14" rx="7" fill="#60A5FA" fill-opacity="0.42"/>
  <rect x="142" y="384" width="130" height="14" rx="7" fill="white" fill-opacity="0.18"/>
  <rect x="142" y="423" width="166" height="14" rx="7" fill="white" fill-opacity="0.18"/>
  <rect x="362" y="184" width="320" height="174" rx="28" fill="white" fill-opacity="0.055" stroke="white" stroke-opacity="0.1"/>
  <rect x="392" y="220" width="124" height="16" rx="8" fill="white" fill-opacity="0.42"/>
  <rect x="392" y="274" width="196" height="24" rx="12" fill="#60A5FA" fill-opacity="0.55"/>
  <rect x="392" y="316" width="238" height="10" rx="5" fill="white" fill-opacity="0.14"/>
  <rect x="714" y="184" width="374" height="174" rx="28" fill="white" fill-opacity="0.055" stroke="white" stroke-opacity="0.1"/>
  <path d="M760 312C800 242 852 274 890 232C936 181 1000 220 1038 206" stroke="url(#line)" stroke-width="10" stroke-linecap="round"/>
  <rect x="362" y="390" width="726" height="246" rx="28" fill="white" fill-opacity="0.055" stroke="white" stroke-opacity="0.1"/>
  <rect x="396" y="430" width="186" height="18" rx="9" fill="white" fill-opacity="0.42"/>
  <rect x="396" y="486" width="650" height="22" rx="11" fill="white" fill-opacity="0.09"/>
  <rect x="396" y="530" width="650" height="22" rx="11" fill="white" fill-opacity="0.09"/>
  <rect x="396" y="574" width="650" height="22" rx="11" fill="white" fill-opacity="0.09"/>
  <rect x="918" y="486" width="92" height="22" rx="11" fill="#A78BFA" fill-opacity="0.35"/>
  <rect x="880" y="530" width="130" height="22" rx="11" fill="#60A5FA" fill-opacity="0.3"/>
  <rect x="940" y="574" width="70" height="22" rx="11" fill="#A78BFA" fill-opacity="0.3"/>
  <text x="392" y="255" fill="white" font-size="30" font-family="Arial, sans-serif" font-weight="700">AI Audit Dashboard</text>
  <defs>
    <pattern id="grid" width="48" height="48" patternUnits="userSpaceOnUse"><path d="M 48 0 L 0 0 0 48" fill="none" stroke="white" stroke-opacity="0.05" stroke-width="1"/></pattern>
    <linearGradient id="line" x1="760" y1="312" x2="1038" y2="206" gradientUnits="userSpaceOnUse"><stop stop-color="#60A5FA"/><stop offset="1" stop-color="#A78BFA"/></linearGradient>
  </defs>
</svg>
